<svg xmlns="http://www.w3.org/2000/svg" width="100%" height="auto" viewBox="0 0 1000 1000" version="1.1" preserveAspectRatio="xMidYMid meet" style="max-width: 100%; max-height: 70vh;">
  <path d="M 494.300 5.295 C 492.521 8.176, 400.088 97.835, 398.362 98.354 C 397.338 98.662, 365.229 105.943, 327.009 114.534 C 288.790 123.125, 256.952 130.625, 256.259 131.200 C 255.567 131.775, 255 133.480, 255 134.989 C 255 137.328, 262.695 144.876, 307.035 186.032 C 335.654 212.596, 358.716 234.667, 358.285 235.078 C 357.395 235.926, 325.094 239.513, 305.500 240.941 C 246.280 245.255, 195.308 241.132, 164.497 229.535 C 149.660 223.950, 140.007 218, 130.374 208.500 C 122.755 200.985, 120.578 198.097, 117.190 191 C 110.816 177.649, 109.605 171.814, 109.619 154.500 C 109.633 137.489, 111.475 126.833, 117.475 109.054 C 119.414 103.308, 121 97.626, 121 96.426 C 121 93.569, 118.736 91.776, 115.637 92.178 C 108.982 93.041, 58.405 142.384, 42.319 163.706 C 20.006 193.284, 9.618 218.398, 9.729 242.500 C 9.791 256.094, 12.129 265.559, 18.442 277.783 C 44.150 327.557, 120.499 361.719, 261.500 386.536 C 269.750 387.988, 276.586 389.259, 276.690 389.362 C 276.795 389.464, 252.157 428.198, 221.940 475.439 C 191.266 523.395, 167 562.320, 167 563.571 C 167 565.145, 179.776 579.448, 209.948 611.656 L 252.897 657.500 252.948 743.550 C 252.988 809.086, 253.286 829.886, 254.200 830.800 C 257.421 834.021, 260.372 832.162, 305.545 798.457 C 342.953 770.546, 350.668 765.176, 351.500 766.474 C 352.050 767.332, 384.903 818.764, 424.506 880.767 L 496.512 993.500 500.006 993.500 L 503.500 993.500 572.263 885 C 610.083 825.325, 642.033 774.831, 643.263 772.790 L 645.500 769.081 687 803.118 C 709.825 821.839, 729.565 837.667, 730.868 838.292 C 732.937 839.285, 733.535 839.079, 735.618 836.658 L 738 833.888 738 743.561 L 738 653.233 783.250 613.863 C 818.299 583.369, 828.567 573.915, 828.799 571.927 C 829.022 570.010, 815.908 547.591, 777.071 483.492 C 748.455 436.264, 725.206 397.461, 725.404 397.262 C 725.603 397.064, 737.890 394.456, 752.709 391.468 C 785.376 384.880, 820.929 375.977, 842.500 368.982 C 898.129 350.944, 932.161 333.276, 956.626 309.731 C 978.113 289.052, 987.948 268.273, 987.975 243.500 C 988.006 214.979, 975.163 185.697, 947.185 150.500 C 941.939 143.900, 928.087 128.938, 916.404 117.250 C 898.473 99.313, 894.707 96, 892.250 96 C 890.186 96, 888.957 96.711, 888.032 98.440 C 886.900 100.555, 887.075 101.986, 889.344 109.190 C 894.035 124.085, 895.129 130.279, 895.666 145 C 896.324 163.048, 894.886 170.774, 888.435 183.840 C 870.869 219.420, 824.816 237.952, 740 243.571 C 716.041 245.158, 678.193 244.970, 649.961 243.124 L 640.421 242.500 699.711 185.090 C 749.471 136.908, 759 127.244, 759 124.963 C 759 123.468, 758.388 121.737, 757.639 121.116 C 756.891 120.495, 719.476 113.261, 674.495 105.042 C 599.758 91.385, 592.486 89.885, 590.105 87.643 C 527.051 28.250, 500.296 4, 497.821 4 C 496.324 4, 494.740 4.583, 494.300 5.295 M 463.872 453.758 C 430.051 500.704, 429.421 501.500, 426.064 501.500 C 422.528 501.500, 418.912 497.105, 369.189 432.361 L 364.474 426.222 327.288 484.397 C 306.835 516.394, 289.815 543.319, 289.464 544.232 C 289.015 545.403, 311.458 577.106, 365.538 651.696 C 407.729 709.888, 442.984 758.279, 443.884 759.231 C 445.411 760.849, 447.228 757.735, 471.509 711.879 C 487.235 682.181, 498.402 662.189, 499.784 661.260 C 501.408 660.169, 502.672 659.994, 504.153 660.655 C 505.559 661.282, 514.348 677.193, 531.145 709.519 C 544.845 735.883, 556.416 757.816, 556.860 758.260 C 557.604 759.004, 713.408 566.707, 714.620 563.547 C 714.929 562.742, 696.591 533.220, 671.931 494.818 C 648.154 457.793, 628.621 427.391, 628.525 427.259 C 628.429 427.126, 618.084 443.682, 605.536 464.051 C 592.988 484.419, 581.852 502.190, 580.788 503.542 C 579.555 505.109, 577.838 506, 576.049 506 C 573.512 506, 569.653 501.213, 535.755 456.008 L 498.266 406.016 463.872 453.758" stroke="none" fill="black" fill-rule="evenodd"/>
</svg>
